<svg fill="none" height="24" viewBox="0 0 24 24" width="24" xmlns="http://www.w3.org/2000/svg"><g fill="#28303f"><path clip-rule="evenodd" d="m17.4697 13.4697c-.2929.2929-.2929.7677 0 1.0606s.7677.2929 1.0606 0l1.2929-1.2929c.6834-.6834.6834-1.7914 0-2.4748l-1.2929-1.29293c-.2929-.29289-.7677-.29289-1.0606 0s-.2929.76773 0 1.06063l.7196.7197h-5.1893c-.4142 0-.75.3358-.75.75s.3358.75.75.75h5.1893z" fill-rule="evenodd"/><path clip-rule="evenodd" d="m11 4.51611h3c1.5188 0 2.75 1.23122 2.75 2.75 0 .41422-.3358.75-.75.75s-.75-.33578-.75-.75c0-.69035-.5596-1.25-1.25-1.25h-3zm5 11.99999c.4142 0 .75.3358.75.75 0 1.5188-1.2312 2.75-2.75 2.75h-3v-1.5h3c.6904 0 1.25-.5596 1.25-1.25 0-.4142.3358-.75.75-.75z" fill-rule="evenodd"/><path d="m3 5.99676c0-.72165.38195-1.39555 1.01783-1.79585l3.42859-1.83479c1.51898-.95623 3.55358.072 3.55358 1.79586v15.67602c0 1.7239-2.0346 2.7521-3.55358 1.7959l-3.42857-1.838c-.63589-.4003-1.01783-1.0742-1.01783-1.7959z" opacity=".4"/></g></svg>